<svg xmlns="http://www.w3.org/2000/svg" xmlns:xlink="http://www.w3.org/1999/xlink" id="Layer_1" x="0px" y="0px" viewBox="0 0 261 62.83" style="enable-background:new 0 0 261 62.83;" xml:space="preserve"><style type="text/css">	.st0{fill:#FFFFFF;}</style><g>	<path class="st0" d="M34.15,27.98c0.79,1.84,1.9,3.51,2.88,5.26c1.5,2.67,3.07,5.29,4.6,7.95c2.12,3.67,4.22,7.35,6.33,11.03  c0.61,1.06,1.21,2.12,1.82,3.18c1.37,2.42,2.75,4.84,4.11,7.24c-0.33,0.27-0.58,0.19-0.82,0.19c-3.21,0-6.43,0-9.65,0.01  c-0.5,0-0.97,0-1.22-0.54c0.05-0.51-0.36-0.78-0.58-1.15c-1.12-1.91-2.17-3.86-3.27-5.78c-3.66-6.42-7.19-12.91-10.98-19.26  c-0.02-0.03-0.07-0.05-0.1-0.07c0-0.12-0.01-0.27-0.15-0.28c-0.19-0.01-0.28,0.13-0.29,0.31c-2.1,3.5-4.2,7-6.29,10.51  c-0.99,1.67-1.97,3.34-2.96,5.01c-0.21,0.35-0.48,0.67-0.55,1.09c0.21,0.32,0.52,0.21,0.78,0.21c1.53,0.01,3.06-0.05,4.59,0.03  c0.76,0.04,1.12-0.31,1.46-0.87c0.99-1.61,2.02-3.19,3.15-4.97c2.97,5.3,5.85,10.46,8.78,15.71H0c0.09-0.66,0.48-1.11,0.76-1.59  c7.78-13.52,15.58-27.03,23.37-40.55c0.33-0.57,0.75-1.09,0.95-1.73c0.62-0.99,1.24-1.99,1.95-3.14c0.79,1.34,1.52,2.56,2.23,3.8  c1.52,2.64,3.02,5.29,4.53,7.93c0.1,0.18,0.25,0.33,0.37,0.49L34.15,27.98z"></path>	<path class="st0" d="M35.83,0c0.87,1.19,1.45,2.38,2.12,3.51c1.2,2.02,2.36,4.07,3.54,6.1c0.21,0.37,0.4,0.67,0.15,1.12  c-1.71,3.06-3.4,6.13-5.1,9.19c-0.04,0.06-0.13,0.09-0.25,0.17c-0.7-1.21-1.41-2.42-2.12-3.63c-1.11-1.93-2.21-3.87-3.35-5.79  c-0.35-0.59-0.41-1.05-0.04-1.7c1.7-2.92,3.32-5.89,5.05-8.98H35.83z"></path>	<path class="st0" d="M53.92,51.16c-1.2-2.15-2.35-4.34-3.62-6.44c-1.21-1.99-2.25-4.08-3.53-6.03c-0.84-1.28-1.49-2.68-2.25-4.02  c-0.78-1.36-1.58-2.7-2.39-4.05c-0.37-0.62-0.53-1.36-1.1-1.88c-0.25-0.24-0.05-0.5,0.13-0.76c0.96-1.39,1.9-2.79,2.84-4.21  c0.94-1.43,1.85-2.87,2.81-4.36c0.75,0.38,0.92,1.15,1.27,1.75c3.41,5.81,6.78,11.65,10.14,17.49c0.99,1.73,1.92,3.5,3.05,5.15  c0.55,1.41,1.44,2.63,2.18,3.93c1.6,2.84,3.27,5.65,4.9,8.47c1.1,1.91,2.19,3.82,3.29,5.73c0.5,0.86,0.5,0.89-0.54,0.89  c-3.23,0-6.44-0.01-9.67,0.02c-0.61,0-0.95-0.19-1.24-0.73c-1.22-2.23-2.47-4.43-3.77-6.61C55.58,54.06,54.83,52.56,53.92,51.16  L53.92,51.16z"></path>	<path class="st0" d="M26.84,36.06c0.01-0.19,0.1-0.32,0.29-0.31c0.14,0,0.15,0.16,0.15,0.28L26.84,36.06z"></path>	<path class="st0" d="M175.32,27.34c0,0.91,0.03,1.82-0.01,2.73c-0.03,0.63,0.18,0.91,0.86,0.88c1.26-0.04,2.53-0.06,3.79,0  c1.83,0.09,3.54-1.55,3.58-3.54c0.04-1.97-1.43-3.58-3.43-3.67c-1.31-0.06-2.63,0.02-3.94-0.03c-0.69-0.02-0.88,0.26-0.85,0.89  C175.35,25.51,175.32,26.43,175.32,27.34L175.32,27.34z M183.92,34.61c1.76,3.05,3.48,6,5.28,9.11c-1.76,0.23-3.4,0.08-5.03,0.1  c-0.51,0-0.64-0.46-0.83-0.79c-1.31-2.22-2.63-4.44-3.87-6.69c-0.42-0.76-0.88-1.14-1.77-1.05c-0.74,0.08-1.5,0.02-2.37,0.02  c0,2.24,0,4.36,0,6.49c0,0.3,0,0.61,0,0.91c-0.02,1.1-0.03,1.11-1.05,1.13c-1.02,0.02-2.03-0.04-3.04,0.02  c-0.82,0.04-1.01-0.29-1.01-1.05c0.03-4.97,0.01-9.94,0.01-14.91c0-2.58-0.01-5.17,0-7.75c0-1.05,0.03-1.07,1.1-1.07  c3.04-0.01,6.09-0.03,9.13,0c5.39,0.06,9.48,5.44,7.65,10.92c-0.58,1.73-1.9,3.21-4.19,4.62L183.92,34.61z"></path>	<path class="st0" d="M226.97,34.7c1.93,0,3.65,0,5.38,0c0.3,0,0.61,0.07,0.88-0.13c-0.22-1.53-2.57-8.24-3.2-9.08  C229.01,28.53,228.02,31.54,226.97,34.7L226.97,34.7z M239.13,35.64c0.91,2.67,1.82,5.32,2.77,8.1c-1.7,0.23-3.31,0.06-4.9,0.11  c-0.43,0.01-0.59-0.22-0.73-0.6c-0.38-1.04-0.59-2.13-1.13-3.11c0-0.42-0.18-0.65-0.63-0.65c-2.89,0-5.77,0.01-8.67,0  c-0.54,0-0.66,0.35-0.79,0.75c-0.31,0.96-0.64,1.92-0.95,2.88c-0.13,0.41-0.27,0.75-0.8,0.74c-1.55-0.02-3.11,0-4.61,0  c-0.2-0.51,0.02-0.81,0.12-1.14c1.59-5.17,3.41-10.27,5.21-15.36c0.85-2.41,1.78-4.8,2.54-7.23c0.25-0.8,0.62-1.04,1.35-1.04  c1.47,0,2.94,0.04,4.41-0.01c0.76-0.03,1,0.28,1.24,0.97C235.39,25.24,237.27,30.44,239.13,35.64L239.13,35.64z"></path>	<path class="st0" d="M150.98,33.74c0.02-4.31,0.04-8.61,0.07-12.92c0-0.55-0.11-1.1,0.1-1.64c0.55-0.2,1.12-0.11,1.67-0.11  c4.36-0.03,8.71-0.05,13.07-0.07c0.19,0.08,0.37,0.18,0.37,0.42c0,1.47,0,2.93,0,4.59h-5.22c-1.35-0.02-2.7,0-4.05-0.08  c-0.79-0.04-0.91,0.32-0.88,0.98c0.04,1,0.06,2,0,3c-0.04,0.77,0.19,1.13,0.99,1c0.2-0.03,0.39-0.04,0.6-0.07  c2.23,0.02,4.46,0.04,6.69,0.07c1.15,0.01,1.17,0.02,1.18,1.17c0.01,0.91-0.03,1.83,0.01,2.74c0.03,0.66-0.22,0.89-0.88,0.88  c-2.23-0.03-4.47-0.01-6.69-0.01c-0.3,0-0.61,0.03-0.91,0c-0.69-0.08-1.02,0.12-0.98,0.9c0.06,1.21,0.05,2.44,0,3.65  c-0.03,0.74,0.24,0.95,0.96,0.95c2.74-0.04,5.48-0.01,8.22-0.01c1.42,0,1.28-0.11,1.29,1.33c0,0.86-0.03,1.73,0.01,2.59  c0.03,0.61-0.22,0.79-0.8,0.77c-1.12-0.03-2.23-0.01-3.35-0.01c-3.3,0-6.59,0-9.89,0c-1.76,0-1.49,0.06-1.51-1.59  c-0.03-2.84-0.04-5.68-0.07-8.52L150.98,33.74z"></path>	<path class="st0" d="M206.79,27.39c0,0.96,0.01,1.92,0,2.88c-0.01,0.47,0.08,0.78,0.65,0.77c1.42-0.02,2.83,0,4.24-0.01  c0.41,0,0.78-0.18,1.13-0.39c1.35-0.84,2.1-2.56,1.75-4.04c-0.4-1.64-1.71-2.77-3.47-2.86c-1.16-0.06-2.32,0-3.48-0.02  c-0.57-0.01-0.82,0.2-0.81,0.79C206.82,25.48,206.8,26.43,206.79,27.39L206.79,27.39z M201.82,31.44c0-3.7,0-7.4,0-11.1  c0-1.41-0.11-1.28,1.33-1.28c2.68,0,5.38-0.04,8.06,0.01c5.24,0.09,8.96,4.36,8.31,9.49c-0.27,2.13-1.25,3.89-2.98,5.34  c-1.66,1.4-3.5,1.85-5.54,1.9c-1.12,0.03-2.23,0.03-3.34,0c-0.65-0.02-0.89,0.2-0.88,0.87c0.03,2.02,0.02,4.05,0.01,6.08  c0,1.05-0.02,1.06-1.07,1.07c-0.96,0.01-1.93-0.04-2.89,0.02c-0.79,0.05-1.04-0.2-1.03-1.01c0.04-3.5,0.02-6.99,0.02-10.49  C201.82,32.05,201.82,31.75,201.82,31.44z"></path>	<path class="st0" d="M257,19c0.65,0.02,1.31,0.05,1.97,0.06s1.31,0,1.93,0c0.26,0.46-0.03,0.72-0.2,1.02  c-2.5,4.45-4.98,8.91-7.5,13.35c-0.37,0.65-0.53,1.28-0.52,2.01c0.03,2.48-0.01,4.97,0.03,7.45c0.01,0.7-0.15,1.01-0.91,0.97  c-1.26-0.06-2.53-0.04-3.79-0.06c-0.43-1.22-0.13-2.49-0.18-3.73c-0.06-1.52-0.04-3.04,0-4.56c0.01-0.74-0.13-1.38-0.53-2  c-0.65-1.02-1.24-2.08-1.85-3.12c-1.67-3.26-3.42-6.48-5.42-9.54c-0.34-0.53-0.57-1.03-0.7-1.77c1.81,0,3.52,0.03,5.22-0.01  c0.59-0.01,0.63,0.47,0.78,0.77c1.03,2.16,2.21,4.23,3.36,6.33c0.34,0.85,0.72,1.68,1.26,2.42c0.07,0.12,0.13,0.34,0.2,0.34  c0.21,0.01,0.34-0.15,0.36-0.37c0.19-0.34,0.24-0.72,0.46-1.07c1-1.57,1.84-3.22,2.44-4.99c0.51-0.47,0.65-1.14,0.95-1.73  C254.91,19.68,255.6,18.8,257,19z"></path>	<path class="st0" d="M139.12,43.91c-0.61-0.03-1.22-0.11-1.82-0.05c-0.85,0.08-0.99-0.3-0.99-1.05c0.03-5.68,0.01-11.37,0.01-17.04  c0-0.36-0.03-0.71,0-1.07c0.06-0.63-0.27-0.77-0.82-0.77c-1.47,0.02-2.94,0.01-4.41,0c-1.36,0-1.36-0.01-1.37-1.43  c0-0.86,0.03-1.73-0.01-2.59c-0.04-0.68,0.25-0.86,0.88-0.86c5.53,0.02,11.06,0.02,16.59,0c0.7,0,0.85,0.28,0.82,0.9  c-0.04,1.01-0.04,2.03,0,3.05c0.03,0.71-0.19,0.99-0.95,0.96c-1.62-0.05-3.25,0-4.87-0.03c-0.62-0.01-0.91,0.13-0.91,0.84  c0.04,5.73,0.06,11.46,0.08,17.19c-0.08,1.21-0.74,1.84-1.95,1.89C139.3,43.85,139.21,43.89,139.12,43.91L139.12,43.91z"></path>	<path class="st0" d="M94.2,34.62h6.38c-1.03-3.11-2.02-6.1-3.02-9.09l-0.28-0.03C96.28,28.48,95.27,31.46,94.2,34.62z   M108.93,43.84c-1.55,0-3.17,0-4.77,0c-0.44,0-0.58-0.25-0.7-0.63c-0.3-1.02-0.68-2.01-1-3.03c-0.16-0.5-0.42-0.72-0.98-0.71  c-2.74,0.03-5.48,0.03-8.22,0c-0.59-0.01-0.8,0.29-0.95,0.76c-0.3,0.91-0.65,1.81-0.9,2.74c-0.17,0.63-0.43,0.93-1.14,0.9  c-1.46-0.06-2.93-0.02-4.59-0.02c0.41-1.28,0.76-2.41,1.15-3.53c2.35-6.68,4.7-13.36,7.06-20.04c0.43-1.21,0.42-1.21,1.67-1.21  c1.27,0,2.54,0.04,3.81-0.02c0.84-0.04,1.22,0.2,1.5,1.06c1.32,4.02,2.74,8.01,4.14,12c1.27,3.62,2.56,7.24,3.85,10.86  C108.92,43.21,109.04,43.44,108.93,43.84L108.93,43.84z"></path>	<path class="st0" d="M123.76,26.64c-0.65-1.75-2.09-2.58-3.71-3.12c-1.17-0.39-2.3,0.11-3.24,0.74c-0.86,0.57-0.81,2.41-0.06,3.14  c0.62,0.62,1.42,0.91,2.21,1.21c1.92,0.74,3.95,1.16,5.8,2.09c1.41,0.7,2.71,1.55,3.39,3.07c1.8,4.06,0.27,8.26-3.99,9.95  c-1.14,0.45-2.34,0.67-3.56,0.7c-2.7,0.08-5.36-0.03-7.62-1.87c-1.3-1.06-2.35-2.26-2.92-3.88c-0.16-0.47-0.08-0.67,0.22-0.84  c1.04-0.6,2.13-1.12,3.15-1.74c0.62-0.38,0.93-0.3,1.28,0.36c1.32,2.46,3.95,3.6,6.64,2.97c0.98-0.23,1.69-0.91,2.29-1.63  c0.56-0.67,0-1.96-1.06-2.56c-1.22-0.7-2.54-1.17-3.9-1.58c-2.05-0.62-4.19-1.14-5.78-2.75c-1.02-1.03-1.94-2.13-1.78-3.74  c0.11-1.19-0.1-2.38,0.21-3.58c0.7-2.67,2.65-4.01,5.06-4.67c4.26-1.16,8.7,0.23,11.19,4.14c0.19,0.3,0.36,0.61,0.49,0.93  c0.08,0.18,0.13,0.46-0.11,0.53c-1.52,0.46-2.65,1.68-4.23,2.11L123.76,26.64z"></path>	<path class="st0" d="M249.94,28.58l0.56-0.03c-0.03,0.22-0.15,0.37-0.36,0.37C250.06,28.93,250,28.71,249.94,28.58L249.94,28.58z"></path></g></svg>