<svg xmlns="http://www.w3.org/2000/svg" xmlns:xlink="http://www.w3.org/1999/xlink" id="Layer_1" x="0px" y="0px" viewBox="0 0 118.8 113.66" style="enable-background:new 0 0 118.8 113.66;" xml:space="preserve"><style type="text/css">	.st0{fill:#FFFFFF;}</style><g>	<path class="st0" d="M115.4,0.27c-0.61,0.68-1.03,1.17-1.46,1.63c-3.42,3.66-6.85,7.32-10.28,10.98c-3.34,3.57-6.67,7.14-10,10.71  c-3.29,3.53-6.56,7.06-9.85,10.59c-2.14,2.3-4.3,4.57-6.44,6.87c-2.1,2.24-4.19,4.49-6.29,6.74c-0.45,0.48-0.44,0.71-0.02,1.27  c1.54,2.08,3.06,4.16,4.61,6.24c1.99,2.67,4.01,5.32,6,7.99c2.52,3.37,5.02,6.75,7.54,10.11c2.81,3.75,5.63,7.49,8.45,11.24  c1.71,2.27,3.44,4.53,5.14,6.82c2.12,2.86,4.2,5.74,6.32,8.6c2.92,3.92,5.86,7.81,8.79,11.72c0.27,0.36,0.59,0.69,0.79,1.09  c0.21,0.42,0.04,0.68-0.42,0.76c-0.32,0.05-0.64,0.04-0.97,0.04c-10.49-0.01-20.98-0.03-31.46-0.01c-0.98,0-1.62-0.3-2.2-1.09  c-2.16-2.95-4.38-5.85-6.57-8.78c-1.99-2.67-3.97-5.35-5.96-8.02c-2.2-2.96-4.42-5.9-6.62-8.86c-1.78-2.39-3.53-4.79-5.31-7.17  c-1.57-2.1-3.17-4.17-4.75-6.26c-0.78-1.03-1.53-2.08-2.3-3.12c-0.17-0.23-0.36-0.46-0.56-0.67c-0.45-0.46-0.66-0.47-1.11,0.02  c-3.1,3.3-6.19,6.61-9.28,9.92c-2.32,2.48-4.64,4.96-6.96,7.45c-2.36,2.53-4.72,5.06-7.09,7.59c-4.97,5.32-9.95,10.63-14.92,15.94  c-0.75,0.8-1.51,1.6-2.24,2.42c-0.37,0.41-0.8,0.61-1.36,0.61c-2.56,0-5.11,0.01-7.67,0.02c-0.1,0-0.19,0-0.29-0.01  c-0.65-0.07-0.81-0.4-0.39-0.89c0.67-0.79,1.39-1.53,2.1-2.28c2.54-2.71,5.09-5.43,7.63-8.14c1.73-1.84,3.46-3.68,5.18-5.52  c3.33-3.57,6.65-7.15,9.98-10.72c3.07-3.29,6.15-6.57,9.23-9.84c3.34-3.56,6.7-7.11,10.04-10.67c0.55-0.59,1.1-1.19,1.64-1.79  c0.49-0.55,0.51-0.75,0.06-1.35c-1.23-1.66-2.47-3.33-3.7-4.99c-2.74-3.68-5.48-7.36-8.23-11.03c-1.92-2.56-3.85-5.12-5.76-7.68  c-3.6-4.82-7.19-9.64-10.79-14.46c-2.28-3.06-4.59-6.1-6.87-9.16C8.3,11.81,5.83,8.48,3.36,5.17C2.33,3.79,1.28,2.44,0.27,1.06  C0.11,0.85-0.06,0.47,0.02,0.32c0.11-0.19,0.48-0.29,0.75-0.3c1.16-0.03,2.33,0,3.5,0c9.55,0,19.1,0.01,28.65-0.02  c1.04,0,1.73,0.32,2.36,1.18c2.01,2.78,4.11,5.49,6.16,8.24c2.61,3.5,5.2,7.01,7.82,10.5c2.6,3.47,5.22,6.92,7.82,10.39  c2.67,3.57,5.34,7.15,8,10.73c0.93,1.26,1.09,1.27,2.17,0.12c2.44-2.59,4.89-5.17,7.32-7.77c1.94-2.08,3.84-4.2,5.78-6.28  c3.77-4.04,7.56-8.07,11.34-12.1c3.14-3.35,6.29-6.69,9.43-10.04c1.33-1.42,2.65-2.84,3.95-4.28c0.4-0.44,0.86-0.66,1.44-0.66  c2.59,0,5.18-0.02,7.77-0.01C114.57,0.03,114.86,0.15,115.4,0.27z M22.95,7.48C22.95,7.48,22.95,7.48,22.95,7.48  c-2.39,0-4.79,0-7.18,0c-0.16,0-0.33-0.01-0.48,0.02c-0.4,0.08-0.53,0.33-0.36,0.71c0.06,0.14,0.17,0.27,0.27,0.4  c1.44,1.91,2.87,3.83,4.31,5.74c1.44,1.91,2.89,3.81,4.32,5.73c1.66,2.23,3.3,4.47,4.97,6.7c1.96,2.61,3.93,5.21,5.89,7.82  c1.49,1.99,2.97,3.99,4.46,5.98c1.4,1.86,2.81,3.71,4.21,5.57c2.09,2.79,4.17,5.6,6.26,8.39c1.3,1.74,2.59,3.47,3.89,5.21  c2.25,3,4.49,6,6.75,9c1.55,2.07,3.13,4.12,4.68,6.19c1.3,1.73,2.59,3.47,3.89,5.21c1.49,1.99,3,3.97,4.49,5.97  c1.86,2.49,3.7,4.99,5.55,7.47c2.81,3.75,5.63,7.49,8.42,11.26c0.63,0.85,1.34,1.26,2.44,1.25c4.53-0.05,9.06-0.01,13.59-0.01  c0.26,0,0.52-0.01,0.77-0.08c0.36-0.1,0.44-0.36,0.28-0.68c-0.07-0.14-0.2-0.25-0.3-0.38c-1.92-2.56-3.83-5.12-5.75-7.69  c-1.66-2.23-3.33-4.45-5-6.68c-1.38-1.84-2.77-3.66-4.14-5.5c-1.53-2.05-3.04-4.11-4.57-6.15c-1.89-2.51-3.8-4.99-5.68-7.5  c-1.92-2.56-3.8-5.15-5.72-7.71c-2.11-2.82-4.26-5.62-6.37-8.44c-2.48-3.31-4.93-6.65-7.41-9.96c-2.97-3.96-5.97-7.89-8.95-11.84  c-1.96-2.61-3.89-5.24-5.85-7.85c-2.62-3.49-5.25-6.97-7.87-10.46c-1.67-2.22-3.35-4.44-4.97-6.7c-0.53-0.74-1.15-1.03-2.04-1.01  C27.48,7.5,25.22,7.48,22.95,7.48z"></path></g></svg>